<?xml version="1.0" encoding="UTF-8"?>
<svg id="Calque_1" xmlns="http://www.w3.org/2000/svg" viewBox="0 0 500 500">
  <defs>
    <style>
      .cls-1 {
        fill: #1d1d1b;
      }

      .cls-2 {
        fill: #ffd500;
      }
    </style>
  </defs>
  <path class="cls-1" d="M500,250c0-35.47-18.47-66.62-46.31-84.37,7.13-32.24-1.84-67.32-26.92-92.4s-60.16-34.05-92.4-26.92C316.62,18.47,285.47,0,250,0s-66.62,18.47-84.37,46.3c-32.24-7.13-67.32,1.84-92.4,26.92s-34.05,60.16-26.92,92.4C18.47,183.38,0,214.53,0,250s18.47,66.62,46.31,84.37c-7.13,32.24,1.84,67.32,26.92,92.4s60.16,34.05,92.4,26.92c17.75,27.84,48.91,46.31,84.37,46.31s66.62-18.47,84.37-46.31c32.24,7.13,67.32-1.84,92.4-26.92s34.05-60.16,26.92-92.4c27.84-17.75,46.31-48.91,46.31-84.37Z"/>
  <path class="cls-2" d="M376.84,176.86l-15.87-15.87c-4.57-4.57-11.98-4.57-16.56,0l-113.16,113.16c-4.57,4.57-11.98,4.57-16.56,0l-59.11-59.11c-4.57-4.57-11.98-4.57-16.56,0l-15.87,15.87c-4.57,4.57-4.57,11.98,0,16.56l67.39,67.39h0s24.15,24.15,24.15,24.15c4.57,4.57,11.98,4.57,16.56,0l24.15-24.15h0s121.44-121.44,121.44-121.44c4.57-4.57,4.57-11.98,0-16.56Z"/>
</svg>